<?xml version="1.0" encoding="utf-8"?>
<!-- Generator: Adobe Illustrator 28.2.0, SVG Export Plug-In . SVG Version: 6.00 Build 0)  -->
<svg version="1.1" id="Capa_1" xmlns="http://www.w3.org/2000/svg" xmlns:xlink="http://www.w3.org/1999/xlink" x="0px" y="0px"
	 viewBox="0 0 512 512" style="enable-background:new 0 0 512 512;" xml:space="preserve">
<style type="text/css">
	.st0{fill:#FFFFFF;}
</style>
<g>
	<path class="st0" d="M376,496H96c-26.5-0.1-47.9-21.5-48-48c0-75,40.5-144.1,105.8-181c28.7,23.9,64.9,37,102.2,37
		c26.7,0.1,52.9-6.7,76.3-19.5c-2.9,6.1-4.4,12.8-4.3,19.5v24h-24c-26.5,0-48,21.5-48,48s21.5,48,48,48h24v24
		C328.1,474.5,349.5,495.9,376,496z"/>
	<circle class="st0" cx="256" cy="144" r="128"/>
	<path class="st0" d="M448,360h-56v-56c0-8.8-7.2-16-16-16s-16,7.2-16,16v56h-56c-8.8,0-16,7.2-16,16s7.2,16,16,16h56v56
		c0,8.8,7.2,16,16,16s16-7.2,16-16v-56h56c8.8,0,16-7.2,16-16S456.8,360,448,360z"/>
</g>
</svg>
