<svg viewBox="0 0 271 47" fill="none" xmlns="http://www.w3.org/2000/svg">
<path d="M64.0547 33.6406C64.8229 33.6406 65.513 33.4909 66.125 33.1914C66.75 32.8789 67.2513 32.4492 67.6289 31.9023C68.0195 31.3555 68.2344 30.724 68.2734 30.0078H72.707C72.681 31.375 72.2773 32.6185 71.4961 33.7383C70.7148 34.8581 69.6797 35.75 68.3906 36.4141C67.1016 37.0651 65.6758 37.3906 64.1133 37.3906C62.4987 37.3906 61.0924 37.1172 59.8945 36.5703C58.6966 36.0104 57.7005 35.2422 56.9062 34.2656C56.112 33.2891 55.513 32.1628 55.1094 30.8867C54.7188 29.6107 54.5234 28.2435 54.5234 26.7852V26.1016C54.5234 24.6432 54.7188 23.276 55.1094 22C55.513 20.7109 56.112 19.5781 56.9062 18.6016C57.7005 17.625 58.6966 16.8633 59.8945 16.3164C61.0924 15.7565 62.4922 15.4766 64.0938 15.4766C65.7865 15.4766 67.2708 15.8151 68.5469 16.4922C69.8229 17.1562 70.8255 18.0872 71.5547 19.2852C72.2969 20.4701 72.681 21.8503 72.707 23.4258H68.2734C68.2344 22.6445 68.0391 21.9414 67.6875 21.3164C67.349 20.6784 66.8672 20.1706 66.2422 19.793C65.6302 19.4154 64.8945 19.2266 64.0352 19.2266C63.0846 19.2266 62.2969 19.4219 61.6719 19.8125C61.0469 20.1901 60.5586 20.7109 60.207 21.375C59.8555 22.026 59.6016 22.7617 59.4453 23.582C59.3021 24.3893 59.2305 25.2292 59.2305 26.1016V26.7852C59.2305 27.6576 59.3021 28.5039 59.4453 29.3242C59.5885 30.1445 59.8359 30.8802 60.1875 31.5312C60.5521 32.1693 61.0469 32.6836 61.6719 33.0742C62.2969 33.4518 63.0911 33.6406 64.0547 33.6406ZM81.3594 15.8672V37H76.6328V15.8672H81.3594ZM76.3203 10.3203C76.3203 9.60417 76.5547 9.01172 77.0234 8.54297C77.5052 8.0612 78.1693 7.82031 79.0156 7.82031C79.849 7.82031 80.5065 8.0612 80.9883 8.54297C81.4701 9.01172 81.7109 9.60417 81.7109 10.3203C81.7109 11.0234 81.4701 11.6094 80.9883 12.0781C80.5065 12.5469 79.849 12.7812 79.0156 12.7812C78.1693 12.7812 77.5052 12.5469 77.0234 12.0781C76.5547 11.6094 76.3203 11.0234 76.3203 10.3203ZM99.2305 32.0195V15.8672H103.957V37H99.5039L99.2305 32.0195ZM99.8945 27.625L101.477 27.5859C101.477 29.0052 101.32 30.3138 101.008 31.5117C100.695 32.6966 100.214 33.7318 99.5625 34.6172C98.9115 35.4896 98.0781 36.1732 97.0625 36.668C96.0469 37.1497 94.8294 37.3906 93.4102 37.3906C92.3815 37.3906 91.4375 37.2409 90.5781 36.9414C89.7188 36.6419 88.9766 36.1797 88.3516 35.5547C87.7396 34.9297 87.2643 34.1159 86.9258 33.1133C86.5872 32.1107 86.418 30.9128 86.418 29.5195V15.8672H91.125V29.5586C91.125 30.3268 91.2161 30.9714 91.3984 31.4922C91.5807 32 91.8281 32.4102 92.1406 32.7227C92.4531 33.0352 92.8177 33.2565 93.2344 33.3867C93.651 33.5169 94.0938 33.582 94.5625 33.582C95.9036 33.582 96.9583 33.3216 97.7266 32.8008C98.5078 32.2669 99.0612 31.5508 99.3867 30.6523C99.7253 29.7539 99.8945 28.7448 99.8945 27.625ZM121.672 32.625V7H126.398V37H122.121L121.672 32.625ZM107.922 26.668V26.2578C107.922 24.6562 108.111 23.1979 108.488 21.8828C108.866 20.5547 109.413 19.4154 110.129 18.4648C110.845 17.5013 111.717 16.7656 112.746 16.2578C113.775 15.737 114.934 15.4766 116.223 15.4766C117.499 15.4766 118.618 15.724 119.582 16.2188C120.546 16.7135 121.366 17.4232 122.043 18.3477C122.72 19.2591 123.26 20.3529 123.664 21.6289C124.068 22.8919 124.354 24.2982 124.523 25.8477V27.1562C124.354 28.6667 124.068 30.0469 123.664 31.2969C123.26 32.5469 122.72 33.6276 122.043 34.5391C121.366 35.4505 120.539 36.1536 119.562 36.6484C118.599 37.1432 117.473 37.3906 116.184 37.3906C114.908 37.3906 113.755 37.1237 112.727 36.5898C111.711 36.056 110.845 35.3073 110.129 34.3438C109.413 33.3802 108.866 32.2474 108.488 30.9453C108.111 29.6302 107.922 28.2044 107.922 26.668ZM112.629 26.2578V26.668C112.629 27.6315 112.714 28.5299 112.883 29.3633C113.065 30.1966 113.345 30.9323 113.723 31.5703C114.1 32.1953 114.589 32.6901 115.188 33.0547C115.799 33.4062 116.529 33.582 117.375 33.582C118.443 33.582 119.322 33.3477 120.012 32.8789C120.702 32.4102 121.242 31.7786 121.633 30.9844C122.036 30.1771 122.31 29.2786 122.453 28.2891V24.7539C122.375 23.9857 122.212 23.2695 121.965 22.6055C121.73 21.9414 121.411 21.362 121.008 20.8672C120.604 20.3594 120.103 19.9688 119.504 19.6953C118.918 19.4089 118.221 19.2656 117.414 19.2656C116.555 19.2656 115.826 19.4479 115.227 19.8125C114.628 20.1771 114.133 20.6784 113.742 21.3164C113.365 21.9544 113.085 22.6966 112.902 23.543C112.72 24.3893 112.629 25.2943 112.629 26.2578ZM143.234 32.7617V22.6836C143.234 21.9284 143.098 21.2773 142.824 20.7305C142.551 20.1836 142.134 19.7604 141.574 19.4609C141.027 19.1615 140.337 19.0117 139.504 19.0117C138.736 19.0117 138.072 19.1419 137.512 19.4023C136.952 19.6628 136.516 20.0143 136.203 20.457C135.891 20.8997 135.734 21.401 135.734 21.9609H131.047C131.047 21.1276 131.249 20.3203 131.652 19.5391C132.056 18.7578 132.642 18.0612 133.41 17.4492C134.178 16.8372 135.096 16.3555 136.164 16.0039C137.232 15.6523 138.43 15.4766 139.758 15.4766C141.346 15.4766 142.753 15.7435 143.977 16.2773C145.214 16.8112 146.184 17.6185 146.887 18.6992C147.603 19.7669 147.961 21.1081 147.961 22.7227V32.1172C147.961 33.0807 148.026 33.9466 148.156 34.7148C148.299 35.4701 148.501 36.1276 148.762 36.6875V37H143.938C143.716 36.4922 143.54 35.8477 143.41 35.0664C143.293 34.2721 143.234 33.5039 143.234 32.7617ZM143.918 24.1484L143.957 27.0586H140.578C139.706 27.0586 138.938 27.1432 138.273 27.3125C137.609 27.4688 137.056 27.7031 136.613 28.0156C136.171 28.3281 135.839 28.7057 135.617 29.1484C135.396 29.5911 135.285 30.0924 135.285 30.6523C135.285 31.2122 135.415 31.7266 135.676 32.1953C135.936 32.651 136.314 33.0091 136.809 33.2695C137.316 33.5299 137.928 33.6602 138.645 33.6602C139.608 33.6602 140.448 33.4648 141.164 33.0742C141.893 32.6706 142.466 32.1823 142.883 31.6094C143.299 31.0234 143.521 30.4701 143.547 29.9492L145.07 32.0391C144.914 32.5729 144.647 33.1458 144.27 33.7578C143.892 34.3698 143.397 34.9557 142.785 35.5156C142.186 36.0625 141.464 36.5117 140.617 36.8633C139.784 37.2148 138.82 37.3906 137.727 37.3906C136.346 37.3906 135.116 37.1172 134.035 36.5703C132.954 36.0104 132.108 35.2617 131.496 34.3242C130.884 33.3737 130.578 32.2995 130.578 31.1016C130.578 29.9818 130.786 28.9922 131.203 28.1328C131.633 27.2604 132.258 26.5312 133.078 25.9453C133.911 25.3594 134.927 24.9167 136.125 24.6172C137.323 24.3047 138.69 24.1484 140.227 24.1484H143.918ZM165.773 32.625V7H170.5V37H166.223L165.773 32.625ZM152.023 26.668V26.2578C152.023 24.6562 152.212 23.1979 152.59 21.8828C152.967 20.5547 153.514 19.4154 154.23 18.4648C154.947 17.5013 155.819 16.7656 156.848 16.2578C157.876 15.737 159.035 15.4766 160.324 15.4766C161.6 15.4766 162.72 15.724 163.684 16.2188C164.647 16.7135 165.467 17.4232 166.145 18.3477C166.822 19.2591 167.362 20.3529 167.766 21.6289C168.169 22.8919 168.456 24.2982 168.625 25.8477V27.1562C168.456 28.6667 168.169 30.0469 167.766 31.2969C167.362 32.5469 166.822 33.6276 166.145 34.5391C165.467 35.4505 164.641 36.1536 163.664 36.6484C162.701 37.1432 161.574 37.3906 160.285 37.3906C159.009 37.3906 157.857 37.1237 156.828 36.5898C155.812 36.056 154.947 35.3073 154.23 34.3438C153.514 33.3802 152.967 32.2474 152.59 30.9453C152.212 29.6302 152.023 28.2044 152.023 26.668ZM156.73 26.2578V26.668C156.73 27.6315 156.815 28.5299 156.984 29.3633C157.167 30.1966 157.447 30.9323 157.824 31.5703C158.202 32.1953 158.69 32.6901 159.289 33.0547C159.901 33.4062 160.63 33.582 161.477 33.582C162.544 33.582 163.423 33.3477 164.113 32.8789C164.803 32.4102 165.344 31.7786 165.734 30.9844C166.138 30.1771 166.411 29.2786 166.555 28.2891V24.7539C166.477 23.9857 166.314 23.2695 166.066 22.6055C165.832 21.9414 165.513 21.362 165.109 20.8672C164.706 20.3594 164.204 19.9688 163.605 19.6953C163.02 19.4089 162.323 19.2656 161.516 19.2656C160.656 19.2656 159.927 19.4479 159.328 19.8125C158.729 20.1771 158.234 20.6784 157.844 21.3164C157.466 21.9544 157.186 22.6966 157.004 23.543C156.822 24.3893 156.73 25.2943 156.73 26.2578Z" fill="#3B82F6"/>
<path d="M187.277 31.2773C187.277 30.8086 187.16 30.3854 186.926 30.0078C186.691 29.6172 186.242 29.2656 185.578 28.9531C184.927 28.6406 183.964 28.3542 182.688 28.0938C181.568 27.8464 180.539 27.5534 179.602 27.2148C178.677 26.8633 177.883 26.4401 177.219 25.9453C176.555 25.4505 176.04 24.8646 175.676 24.1875C175.311 23.5104 175.129 22.7292 175.129 21.8438C175.129 20.9844 175.318 20.1706 175.695 19.4023C176.073 18.6341 176.613 17.957 177.316 17.3711C178.02 16.7852 178.872 16.3229 179.875 15.9844C180.891 15.6458 182.023 15.4766 183.273 15.4766C185.044 15.4766 186.561 15.776 187.824 16.375C189.1 16.9609 190.077 17.7617 190.754 18.7773C191.431 19.7799 191.77 20.9128 191.77 22.1758H187.062C187.062 21.6159 186.919 21.0951 186.633 20.6133C186.359 20.1185 185.943 19.7214 185.383 19.4219C184.823 19.1094 184.12 18.9531 183.273 18.9531C182.466 18.9531 181.796 19.0833 181.262 19.3438C180.741 19.5911 180.35 19.9167 180.09 20.3203C179.842 20.724 179.719 21.1667 179.719 21.6484C179.719 22 179.784 22.319 179.914 22.6055C180.057 22.8789 180.292 23.1328 180.617 23.3672C180.943 23.5885 181.385 23.7969 181.945 23.9922C182.518 24.1875 183.234 24.3763 184.094 24.5586C185.708 24.8971 187.095 25.3333 188.254 25.8672C189.426 26.388 190.324 27.0651 190.949 27.8984C191.574 28.7188 191.887 29.7604 191.887 31.0234C191.887 31.9609 191.685 32.8203 191.281 33.6016C190.891 34.3698 190.318 35.0404 189.562 35.6133C188.807 36.1732 187.902 36.6094 186.848 36.9219C185.806 37.2344 184.634 37.3906 183.332 37.3906C181.418 37.3906 179.797 37.0521 178.469 36.375C177.141 35.6849 176.132 34.806 175.441 33.7383C174.764 32.6576 174.426 31.5378 174.426 30.3789H178.977C179.029 31.2513 179.27 31.9479 179.699 32.4688C180.142 32.9766 180.689 33.3477 181.34 33.582C182.004 33.8034 182.688 33.9141 183.391 33.9141C184.237 33.9141 184.947 33.8034 185.52 33.582C186.092 33.3477 186.529 33.0352 186.828 32.6445C187.128 32.2409 187.277 31.7852 187.277 31.2773ZM207.922 32.7617V22.6836C207.922 21.9284 207.785 21.2773 207.512 20.7305C207.238 20.1836 206.822 19.7604 206.262 19.4609C205.715 19.1615 205.025 19.0117 204.191 19.0117C203.423 19.0117 202.759 19.1419 202.199 19.4023C201.639 19.6628 201.203 20.0143 200.891 20.457C200.578 20.8997 200.422 21.401 200.422 21.9609H195.734C195.734 21.1276 195.936 20.3203 196.34 19.5391C196.743 18.7578 197.329 18.0612 198.098 17.4492C198.866 16.8372 199.784 16.3555 200.852 16.0039C201.919 15.6523 203.117 15.4766 204.445 15.4766C206.034 15.4766 207.44 15.7435 208.664 16.2773C209.901 16.8112 210.871 17.6185 211.574 18.6992C212.29 19.7669 212.648 21.1081 212.648 22.7227V32.1172C212.648 33.0807 212.714 33.9466 212.844 34.7148C212.987 35.4701 213.189 36.1276 213.449 36.6875V37H208.625C208.404 36.4922 208.228 35.8477 208.098 35.0664C207.98 34.2721 207.922 33.5039 207.922 32.7617ZM208.605 24.1484L208.645 27.0586H205.266C204.393 27.0586 203.625 27.1432 202.961 27.3125C202.297 27.4688 201.743 27.7031 201.301 28.0156C200.858 28.3281 200.526 28.7057 200.305 29.1484C200.083 29.5911 199.973 30.0924 199.973 30.6523C199.973 31.2122 200.103 31.7266 200.363 32.1953C200.624 32.651 201.001 33.0091 201.496 33.2695C202.004 33.5299 202.616 33.6602 203.332 33.6602C204.296 33.6602 205.135 33.4648 205.852 33.0742C206.581 32.6706 207.154 32.1823 207.57 31.6094C207.987 31.0234 208.208 30.4701 208.234 29.9492L209.758 32.0391C209.602 32.5729 209.335 33.1458 208.957 33.7578C208.579 34.3698 208.085 34.9557 207.473 35.5156C206.874 36.0625 206.151 36.5117 205.305 36.8633C204.471 37.2148 203.508 37.3906 202.414 37.3906C201.034 37.3906 199.803 37.1172 198.723 36.5703C197.642 36.0104 196.796 35.2617 196.184 34.3242C195.572 33.3737 195.266 32.2995 195.266 31.1016C195.266 29.9818 195.474 28.9922 195.891 28.1328C196.32 27.2604 196.945 26.5312 197.766 25.9453C198.599 25.3594 199.615 24.9167 200.812 24.6172C202.01 24.3047 203.378 24.1484 204.914 24.1484H208.605ZM222.609 7V37H217.883V7H222.609ZM240.48 32.0195V15.8672H245.207V37H240.754L240.48 32.0195ZM241.145 27.625L242.727 27.5859C242.727 29.0052 242.57 30.3138 242.258 31.5117C241.945 32.6966 241.464 33.7318 240.812 34.6172C240.161 35.4896 239.328 36.1732 238.312 36.668C237.297 37.1497 236.079 37.3906 234.66 37.3906C233.632 37.3906 232.688 37.2409 231.828 36.9414C230.969 36.6419 230.227 36.1797 229.602 35.5547C228.99 34.9297 228.514 34.1159 228.176 33.1133C227.837 32.1107 227.668 30.9128 227.668 29.5195V15.8672H232.375V29.5586C232.375 30.3268 232.466 30.9714 232.648 31.4922C232.831 32 233.078 32.4102 233.391 32.7227C233.703 33.0352 234.068 33.2565 234.484 33.3867C234.901 33.5169 235.344 33.582 235.812 33.582C237.154 33.582 238.208 33.3216 238.977 32.8008C239.758 32.2669 240.311 31.5508 240.637 30.6523C240.975 29.7539 241.145 28.7448 241.145 27.625ZM262.922 32.625V7H267.648V37H263.371L262.922 32.625ZM249.172 26.668V26.2578C249.172 24.6562 249.361 23.1979 249.738 21.8828C250.116 20.5547 250.663 19.4154 251.379 18.4648C252.095 17.5013 252.967 16.7656 253.996 16.2578C255.025 15.737 256.184 15.4766 257.473 15.4766C258.749 15.4766 259.868 15.724 260.832 16.2188C261.796 16.7135 262.616 17.4232 263.293 18.3477C263.97 19.2591 264.51 20.3529 264.914 21.6289C265.318 22.8919 265.604 24.2982 265.773 25.8477V27.1562C265.604 28.6667 265.318 30.0469 264.914 31.2969C264.51 32.5469 263.97 33.6276 263.293 34.5391C262.616 35.4505 261.789 36.1536 260.812 36.6484C259.849 37.1432 258.723 37.3906 257.434 37.3906C256.158 37.3906 255.005 37.1237 253.977 36.5898C252.961 36.056 252.095 35.3073 251.379 34.3438C250.663 33.3802 250.116 32.2474 249.738 30.9453C249.361 29.6302 249.172 28.2044 249.172 26.668ZM253.879 26.2578V26.668C253.879 27.6315 253.964 28.5299 254.133 29.3633C254.315 30.1966 254.595 30.9323 254.973 31.5703C255.35 32.1953 255.839 32.6901 256.438 33.0547C257.049 33.4062 257.779 33.582 258.625 33.582C259.693 33.582 260.572 33.3477 261.262 32.8789C261.952 32.4102 262.492 31.7786 262.883 30.9844C263.286 30.1771 263.56 29.2786 263.703 28.2891V24.7539C263.625 23.9857 263.462 23.2695 263.215 22.6055C262.98 21.9414 262.661 21.362 262.258 20.8672C261.854 20.3594 261.353 19.9688 260.754 19.6953C260.168 19.4089 259.471 19.2656 258.664 19.2656C257.805 19.2656 257.076 19.4479 256.477 19.8125C255.878 20.1771 255.383 20.6784 254.992 21.3164C254.615 21.9544 254.335 22.6966 254.152 23.543C253.97 24.3893 253.879 25.2943 253.879 26.2578Z" fill="#38BDF8"/>
<g clip-path="url(#clip0_1014_727)">
<path fill-rule="evenodd" clip-rule="evenodd" d="M1.55996 25.5319C5.81168 34.6972 15.9669 41.8195 23.1446 43.6683C23.8857 43.8183 24.1143 43.8183 24.8563 43.6683C32.0331 41.8204 42.1893 34.6972 46.441 25.5319C41.926 29.9706 36.877 29.601 31.3201 29.601C31.01 29.601 30.7317 29.3505 30.6071 29.0588L30.0225 27.709L28.6958 34.2366C28.6302 34.5902 28.3548 34.8698 28.0016 34.9411C27.5228 35.0349 27.06 34.7253 26.9625 34.2488L23.6927 18.1395L21.534 28.7709C21.4685 29.1245 21.193 29.404 20.8398 29.4725C20.3638 29.57 19.8982 29.2596 19.8045 28.7802L18.847 24.0752L17.8894 28.7859C17.792 29.253 17.5175 29.5944 17.0041 29.5944C11.154 29.5944 5.85384 30.2144 1.5609 25.5319H1.55996Z" fill="#3B82F6"/>
<path fill-rule="evenodd" clip-rule="evenodd" d="M24.001 8.39253C21.2418 5.44532 17.5691 3.9567 13.5488 4.00079C9.13404 3.95389 5.61405 5.50723 3.20899 7.98169C0.179947 11.199 -0.799128 15.844 0.677449 20.0097C3.44603 27.8252 9.60062 27.7586 16.2986 27.7586L17.9823 19.4676C18.0797 18.9882 18.5425 18.6787 19.0213 18.7753C19.3717 18.8438 19.6472 19.1233 19.7127 19.4769L20.6665 24.1726L22.828 13.5319C22.9217 13.0554 23.3883 12.7458 23.8633 12.8396C24.2165 12.9118 24.4919 13.1904 24.5575 13.5412L27.8274 29.6412L28.857 24.5637C28.9545 24.0844 29.4201 23.7749 29.8961 23.8687C30.1837 23.9278 30.4217 24.122 30.5378 24.3921L32.0051 27.828C38.8689 27.828 44.6169 27.6432 47.3227 20.0097C48.7992 15.844 47.8202 11.199 44.7911 7.98169C42.3889 5.50723 38.8661 3.95389 34.4513 4.00079C30.431 3.9567 26.7574 5.44438 24.001 8.39253Z" fill="#38BDF8"/>
</g>
<defs>
<clipPath id="clip0_1014_727">
<rect width="48" height="39.7808" fill="white" transform="translate(0 4)"/>
</clipPath>
</defs>
</svg>
