<svg xmlns="http://www.w3.org/2000/svg" version="1.1" xmlns:xlink="http://www.w3.org/1999/xlink" width="512" height="512" x="0" y="0" viewBox="0 0 512 512" style="enable-background:new 0 0 512 512" xml:space="preserve" class=""><g><g data-name="07.Icon"><rect width="512" height="512" fill="#1e88e5" rx="150" opacity="1" data-original="#1e88e5" class=""></rect><path fill="#ffffff" d="M391.48 441H120.52c-24.49 0-41.88-23.84-34.41-47.16l26.72-83.39c10-31.21 43.9-47.87 74.72-36.72 18.15 6.57 40.97 11.54 68.45 11.54s50.3-4.97 68.45-11.54c30.82-11.15 64.72 5.51 74.72 36.72l26.72 83.39c7.47 23.32-9.92 47.16-34.41 47.16zM256 71c-49.89 0-90.33 40.44-90.33 90.33s40.44 90.33 90.33 90.33 90.33-40.44 90.33-90.33S305.89 71 256 71z" data-name="User" opacity="1" data-original="#ffffff" class=""></path></g></g></svg>